<?xml version="1.0" standalone="no"?><!DOCTYPE svg PUBLIC "-//W3C//DTD SVG 1.1//EN" "http://www.w3.org/Graphics/SVG/1.1/DTD/svg11.dtd"><svg t="1582896164103" class="icon" viewBox="0 0 1024 1024" version="1.1" xmlns="http://www.w3.org/2000/svg" p-id="11475" xmlns:xlink="http://www.w3.org/1999/xlink" width="32" height="32"><defs><style type="text/css"></style></defs><path d="M510.634667 840.362667c-181.589333 0-329.045333-147.456-329.045334-329.045334s147.456-329.045333 329.045334-329.045333c73.728 0 143.36 23.893333 201.386666 68.949333 8.874667 6.826667 10.922667 19.797333 3.413334 28.672-6.826667 8.874667-19.797333 10.922667-28.672 3.413334-50.517333-39.594667-111.957333-60.074667-176.128-60.074667-159.061333 0-288.085333 129.024-288.085334 288.085333 0 159.061333 129.024 288.085333 288.085334 288.085334s288.085333-129.706667 288.085333-288.085334c0-22.528-2.730667-45.738667-8.192-67.584-2.730667-10.922667 4.096-21.845333 15.018667-24.576 10.922667-2.730667 21.845333 4.096 24.576 15.018667 6.144 25.258667 8.874667 51.2 8.874666 77.141333 0.682667 181.589333-146.773333 329.045333-328.362666 329.045334z" fill="#4D4D4D" p-id="11476"></path><path d="M510.634667 511.317333m-228.693334 0a228.693333 228.693333 0 1 0 457.386667 0 228.693333 228.693333 0 1 0-457.386667 0Z" fill="#FFE55C" p-id="11477"></path><path d="M484.010667 651.946667c-5.461333 0-10.24-2.048-14.336-6.144L329.728 505.856c-8.192-8.192-8.192-21.162667 0-29.354667 8.192-8.192 21.162667-8.192 29.354667 0L484.693333 602.112l298.325334-298.325333c8.192-8.192 21.162667-8.192 29.354666 0 8.192 8.192 8.192 21.162667 0 29.354666L499.029333 646.485333c-4.096 3.413333-9.557333 5.461333-15.018666 5.461334z" fill="#4D4D4D" p-id="11478"></path></svg>